<?xml version="1.0" encoding="UTF-8" standalone="no"?>
<svg
   viewBox="0 0 32 32"
   id="svg2"
   version="1.1"
   sodipodi:docname="start.svg"
   inkscape:version="1.2.1 (9c6d41e410, 2022-07-14, custom)"
   width="32"
   height="32"
   xmlns:inkscape="http://www.inkscape.org/namespaces/inkscape"
   xmlns:sodipodi="http://sodipodi.sourceforge.net/DTD/sodipodi-0.dtd"
   xmlns="http://www.w3.org/2000/svg"
   xmlns:svg="http://www.w3.org/2000/svg"
   xmlns:rdf="http://www.w3.org/1999/02/22-rdf-syntax-ns#"
   xmlns:cc="http://creativecommons.org/ns#"
   xmlns:dc="http://purl.org/dc/elements/1.1/">
  <sodipodi:namedview
     pagecolor="#828282"
     bordercolor="#666666"
     borderopacity="1"
     objecttolerance="10"
     gridtolerance="10"
     guidetolerance="10"
     inkscape:pageopacity="0"
     inkscape:pageshadow="2"
     inkscape:window-width="1920"
     inkscape:window-height="995"
     id="namedview17"
     showgrid="true"
     inkscape:zoom="5.1617728"
     inkscape:cx="2.7122465"
     inkscape:cy="41.942954"
     inkscape:window-x="0"
     inkscape:window-y="0"
     inkscape:window-maximized="1"
     inkscape:current-layer="svg2"
     fit-margin-top="0"
     fit-margin-left="0"
     fit-margin-right="0"
     fit-margin-bottom="0"
     inkscape:snap-bbox="true"
     inkscape:bbox-nodes="true"
     units="in"
     inkscape:showpageshadow="2"
     inkscape:pagecheckerboard="0"
     inkscape:deskcolor="#828282">
    <inkscape:grid
       type="xygrid"
       id="grid938"
       originx="-22"
       originy="32" />
  </sodipodi:namedview>
  <metadata
     id="metadata21">
    <rdf:RDF>
      <cc:Work
         rdf:about="">
        <dc:format>image/svg+xml</dc:format>
        <dc:type
           rdf:resource="http://purl.org/dc/dcmitype/StillImage" />
        <dc:title />
      </cc:Work>
    </rdf:RDF>
  </metadata>
  <defs
     id="defs3051">
    <style
       type="text/css"
       id="current-color-scheme">
      .ColorScheme-Text {
        color:#31363b;
      }
      </style>
  </defs>
  <g
     transform="translate(-24,-283.64999)"
     id="16-16-start-here-kde" />
  <g
     id="g918"
     fill="currentColor"
     class="ColorScheme-Text">
    <g
       transform="translate(-27,-282.64999)"
       id="22-22-start-here-kde">
      <path
         inkscape:connector-curvature="0"
         id="rect1446"
         d="m 34,315.64999 h 18 c 1.108,0 2,0.892 2,2 v 18 c 0,1.108 -0.892,2 -2,2 H 34 c -1.108,0 -2,-0.892 -2,-2 v -18 c 0,-1.108 0.892,-2 2,-2 z"
         style="opacity:1;fill:none;fill-opacity:1;stroke:none;stroke-width:2;stroke-linecap:round;stroke-linejoin:round;stroke-miterlimit:4;stroke-dasharray:none;stroke-dashoffset:0;stroke-opacity:1" />
      <circle
         style="stroke-width:0"
         id="path473-62-9"
         cx="38"
         cy="321.64999"
         r="4" />
      <circle
         style="stroke-width:0"
         id="path473-62-9-3"
         cx="48"
         cy="321.64999"
         r="4" />
      <circle
         style="stroke-width:0"
         id="path473-62-9-6"
         cx="38"
         cy="331.64999"
         r="4" />
      <circle
         style="stroke-width:0"
         id="path473-62-9-3-0"
         cx="48"
         cy="331.64999"
         r="4" />
    </g>
    <rect
       ry="1"
       y="339.64999"
       x="32"
       height="16"
       width="16"
       id="rect1446-6"
       style="opacity:1;fill:#7200ff;fill-opacity:0;stroke:none;stroke-width:1.4545455;stroke-linecap:round;stroke-linejoin:round;stroke-miterlimit:4;stroke-dasharray:none;stroke-dashoffset:0;stroke-opacity:1"
       transform="translate(-24,-283.64999)" />
    <circle
       style="stroke-width:0"
       id="path473-62-9-3-0-6"
       cx="36.5"
       cy="344.14999"
       r="2.5"
       transform="translate(-24,-283.64999)" />
    <circle
       style="stroke-width:0"
       id="path473-62-9-3-0-6-2"
       cx="43.5"
       cy="344.14999"
       r="2.5"
       transform="translate(-24,-283.64999)" />
    <circle
       style="stroke-width:0"
       id="path473-62-9-3-0-6-6"
       cx="36.5"
       cy="351.14999"
       r="2.5"
       transform="translate(-24,-283.64999)" />
    <circle
       style="stroke-width:0"
       id="path473-62-9-3-0-6-2-1"
       cx="43.5"
       cy="351.14999"
       r="2.5"
       transform="translate(-24,-283.64999)" />
    <g
       id="start-here-kde">
      <rect
         y="0"
         x="0"
         height="32"
         width="32"
         id="rect944"
         style="fill:#7200ff;fill-opacity:0;stroke-linecap:butt;stroke-linejoin:miter;paint-order:markers stroke fill" />
      <circle
         style="stroke-width:0"
         id="path473"
         cx="8"
         cy="8"
         r="6" />
      <circle
         style="stroke-width:0"
         id="path473-6"
         cx="24"
         cy="8"
         r="6" />
      <circle
         style="stroke-width:0"
         id="path473-5"
         cx="8"
         cy="23"
         r="6" />
      <circle
         style="stroke-width:0"
         id="path473-62"
         cx="24"
         cy="23"
         r="6" />
    </g>
  </g>
  <path
     style="fill:#b3b3b3;stroke-width:0.193732"
     d="M 6.4900183,13.689303 C 5.1741927,13.253459 4.5399619,12.83994 3.6228877,11.819932 1.0162017,8.9206702 1.9130362,4.5049404 5.4783124,2.684408 6.6126644,2.1051752 8.5643256,1.9845433 9.8566475,2.4137837 11.190824,2.8569262 12.789791,4.329621 13.3842,5.6627616 14.634681,8.4673438 13.37096,11.904165 10.58949,13.263281 9.365406,13.861407 7.5722045,14.047759 6.4900183,13.689303 Z"
     id="path341" />
  <path
     style="fill:#b3b3b3;stroke-width:0.193732"
     d="M 6.1766149,28.59859 C 3.8078793,27.752121 2.3503494,25.865682 2.1747118,23.41904 2.0485011,21.660919 2.4811,20.432252 3.693322,19.105888 4.9420786,17.73955 6.2095251,17.17412 8.04678,17.163738 c 3.245775,-0.01834 5.772067,2.510944 5.786631,5.793491 0.0045,1.014199 -0.108761,1.613549 -0.449211,2.377112 -0.571248,1.281196 -2.185672,2.794991 -3.434641,3.220558 -1.0886642,0.370945 -2.8016537,0.390781 -3.7729441,0.04369 z"
     id="path343" />
  <path
     style="fill:#b3b3b3;stroke-width:0.193732"
     d="m 22.020821,28.541791 c -0.515024,-0.17804 -1.360632,-0.705123 -1.879129,-1.171296 -2.060571,-1.85263 -2.57778,-4.466556 -1.369444,-6.921035 1.805626,-3.667747 6.50414,-4.459288 9.382751,-1.580676 1.093795,1.093795 1.53717,2.127268 1.638231,3.818593 0.07779,1.301869 0.02566,1.612788 -0.447042,2.666099 -0.581292,1.295292 -1.528986,2.279297 -2.844622,2.953615 -1.111008,0.569438 -3.196444,0.678672 -4.480745,0.2347 z"
     id="path345" />
  <path
     style="fill:#b3b3b3;stroke-width:0.193732"
     d="M 22.472016,13.698312 C 19.008178,12.718839 17.13477,8.6932705 18.676395,5.542303 c 2.229061,-4.55603731 8.606874,-4.4954719 10.669793,0.1013232 0.472697,1.0533108 0.524832,1.3642307 0.447042,2.6660991 -0.0593,0.9924937 -0.225494,1.7409197 -0.508932,2.2919507 -1.244761,2.419936 -4.297683,3.807692 -6.812282,3.096636 z"
     id="path347" />
  <path
     style="fill:#b3b3b3;stroke-width:0.193732"
     d="m 19.468393,52.527499 c -2.800443,-1.272214 -3.146574,-4.998075 -0.626557,-6.744448 2.118386,-1.468043 5.213148,-0.294475 5.866608,2.224681 0.812477,3.132177 -2.3293,5.842093 -5.240051,4.519767 z"
     id="path349" />
  <path
     style="fill:#b3b3b3;stroke-width:0.193732"
     d="m 18.935827,42.243551 c -2.130685,-1.351241 -2.440659,-4.157308 -0.656345,-5.941622 1.11774,-1.117741 2.45822,-1.473745 3.825477,-1.01597 2.508339,0.839824 3.530594,3.678892 2.101504,5.836423 -1.152546,1.740027 -3.505545,2.240556 -5.270636,1.121169 z"
     id="path351" />
  <path
     style="fill:#b3b3b3;stroke-width:0.193732"
     d="m 9.4942459,52.580194 c -3.2433331,-1.40649 -3.0427407,-6.147287 0.3068784,-7.252761 1.0750947,-0.354814 2.4913017,-0.142861 3.4174467,0.511463 2.366528,1.671957 2.144543,5.174621 -0.41261,6.510494 -1.170531,0.611492 -2.258938,0.687347 -3.3117151,0.230804 z"
     id="path353" />
  <path
     style="fill:#b3b3b3;stroke-width:0.193732"
     d="m 9.3959967,42.545917 c -0.8493654,-0.370708 -1.990535,-1.723134 -2.1439349,-2.540826 -0.7473275,-3.983598 3.6293602,-6.50802 6.4291322,-3.708248 0.463746,0.463746 0.906634,1.144967 1.04531,1.607827 0.509549,1.700723 -0.349265,3.71098 -1.929885,4.517352 -0.891656,0.454889 -2.507377,0.513755 -3.4006223,0.123895 z"
     id="path355" />
  <path
     style="fill:#b3b3b3;stroke-width:0.193732"
     d="m 11.867722,62.828072 c -0.660052,-0.129893 -1.569458,-1.152479 -1.715037,-1.928483 -0.2481488,-1.322746 0.957933,-2.7775 2.30421,-2.779298 1.174841,-0.0016 2.457987,1.195527 2.459736,2.29478 10e-4,0.644979 -0.538695,1.700931 -1.0359,2.026712 -0.50384,0.330128 -1.412414,0.504481 -2.013009,0.386289 z"
     id="path357" />
  <path
     style="fill:#b3b3b3;stroke-width:0.193732"
     d="m 18.791993,62.745743 c -0.266381,-0.105908 -0.722987,-0.42078 -1.01468,-0.699716 -1.544679,-1.477121 -0.222621,-4.083711 1.958473,-3.861353 2.398988,0.244572 2.92054,3.573501 0.704909,4.49925 -0.766123,0.320107 -0.978982,0.328088 -1.648702,0.06182 z"
     id="path359" />
  <path
     style="fill:#b3b3b3;stroke-width:0.193732"
     d="m 18.416476,69.583213 c -0.670986,-0.359854 -1.36807,-1.390352 -1.36807,-2.022416 0,-1.18585 1.235572,-2.464626 2.382837,-2.466158 1.235731,-0.0016 2.459012,1.202684 2.459012,2.420925 0,0.827188 -0.669453,1.816759 -1.44956,2.142708 -0.873758,0.36508 -1.228027,0.351943 -2.024219,-0.07506 z"
     id="path361" />
  <path
     style="fill:#b3b3b3;stroke-width:0.193732"
     d="m 11.493237,69.663767 c -1.6842846,-0.757919 -1.8132213,-3.206069 -0.220012,-4.177422 1.16039,-0.70747 2.54202,-0.357123 3.26451,0.8278 0.449613,0.737389 0.475752,1.274385 0.105204,2.161232 -0.491232,1.175683 -1.952621,1.727069 -3.149702,1.18839 z"
     id="path363" />
  <path
     style="fill:#e6e6e6;stroke-width:0.193732"
     d="M 6.0588835,13.446322 C 4.9131887,13.024114 3.4064635,11.602942 2.808272,10.380283 1.632973,7.978058 2.4753056,4.8444441 4.7035119,3.3296828 5.8400166,2.5570732 6.6315238,2.3247827 8.1276105,2.3247827 c 1.6392427,0 2.9504045,0.6169023 4.1522375,1.9536288 3.223517,3.5853269 0.795622,9.1503105 -4.102175,9.4026025 -0.8495486,0.04376 -1.5839147,-0.03758 -2.1187895,-0.234692 z"
     id="path212" />
  <path
     style="fill:#e6e6e6;stroke-width:0.193732"
     d="m 21.555462,13.176339 c -2.111267,-1.068221 -3.213855,-2.854461 -3.230364,-5.2333315 -0.01234,-1.7778386 0.552924,-3.0183814 1.926112,-4.22711 1.173565,-1.0330127 2.457759,-1.4552588 4.126766,-1.3568899 3.056662,0.1801554 5.263003,2.4828281 5.263003,5.4927923 0,1.7852101 -0.309695,2.6750511 -1.323421,3.8025581 -1.175201,1.307106 -2.482061,1.945381 -4.197938,2.050288 -1.225155,0.0749 -1.472789,0.02388 -2.564158,-0.528307 z"
     id="path214" />
  <path
     style="fill:#e6e6e6;stroke-width:0.193732"
     d="m 21.5652,28.189136 c -1.127207,-0.569624 -2.152568,-1.60958 -2.809966,-2.849962 -0.659989,-1.245273 -0.613746,-3.369722 0.103652,-4.761816 1.892285,-3.671935 6.342909,-4.435378 9.200132,-1.578154 1.114163,1.114162 1.461601,1.962703 1.546003,3.775773 0.06168,1.325069 0.0046,1.706178 -0.376954,2.518515 -0.2473,0.526448 -0.800434,1.30771 -1.229187,1.736137 -1.14417,1.143301 -2.063525,1.522632 -3.87926,1.600602 -1.36405,0.05857 -1.670287,0.0057 -2.55442,-0.441095 z"
     id="path216" />
  <path
     style="fill:#e6e6e6;stroke-width:0.193732"
     d="M 5.478802,28.168886 C 4.2478154,27.573265 3.0408183,26.248913 2.6299301,25.043022 c -0.7925552,-2.326021 -0.170422,-4.690417 1.6694275,-6.3446 2.8119581,-2.528192 7.3532154,-1.556456 8.8799864,1.900134 1.281227,2.900684 0.0989,6.149517 -2.75562,7.571986 -1.410467,0.702865 -3.490309,0.702169 -4.944922,-0.0016 z"
     id="path218" />
  <path
     style="fill:#e6e6e6;stroke-width:0.193732"
     d="M 9.3959967,42.406075 C 8.7618029,42.038808 7.9272849,41.204144 7.635114,40.644885 7.4847978,40.357157 7.3618118,39.665452 7.3618118,39.107762 c 0,-4.149429 5.1655602,-5.308679 7.0485522,-1.581829 0.693837,1.373254 0.139628,3.454342 -1.189993,4.468493 -0.574297,0.438038 -0.916858,0.534465 -2.062786,0.58065 -0.793228,0.03197 -1.5379206,-0.03947 -1.7615883,-0.169001 z"
     id="path220" />
  <path
     style="fill:#e6e6e6;stroke-width:0.193732"
     d="m 19.932119,42.551953 c -2.520048,-0.916692 -3.443816,-3.530458 -1.982558,-5.609574 1.125996,-1.602097 2.953789,-2.102409 4.661171,-1.275879 2.222288,1.07579 2.799539,3.864717 1.18138,5.707699 -1.04521,1.190428 -2.55704,1.651715 -3.859993,1.177754 z"
     id="path222" />
  <path
     style="fill:#e6e6e6;stroke-width:0.193732"
     d="M 9.3959967,52.372472 C 7.9000868,51.582073 7.2866842,50.453808 7.3984661,48.698307 7.4619973,47.700568 7.5811403,47.348971 8.05345,46.765417 8.9474909,45.6608 9.7618979,45.297655 11.165433,45.377781 c 1.531766,0.08745 2.563049,0.734372 3.170265,1.988713 0.884908,1.827975 0.207084,3.818885 -1.664676,4.889496 -0.906939,0.518752 -2.412355,0.572295 -3.2750253,0.116482 z"
     id="path224" />
  <path
     style="fill:#e6e6e6;stroke-width:0.193732"
     d="m 19.470055,52.373703 c -2.136698,-1.124453 -2.840521,-3.628154 -1.545316,-5.497135 1.772706,-2.558017 5.873971,-1.821493 6.687853,1.201034 0.425659,1.580778 -0.51617,3.589443 -2.016953,4.301612 -0.837332,0.39734 -2.365201,0.394646 -3.125584,-0.0055 z"
     id="path226" />
  <path
     style="fill:#e6e6e6;stroke-width:0.193732"
     d="m 18.475574,62.397543 c -0.791925,-0.482893 -1.233436,-1.131569 -1.233436,-1.812189 0,-1.909251 2.295378,-2.985264 3.696897,-1.733008 0.459331,0.410413 0.627118,0.750375 0.703115,1.424622 0.119029,1.056022 -0.132003,1.601164 -0.973635,2.114343 -0.779133,0.475071 -1.421071,0.476895 -2.192941,0.0062 z"
     id="path228" />
  <path
     style="fill:#e6e6e6;stroke-width:0.193732"
     d="m 11.019926,62.016997 c -0.557068,-0.557068 -0.752136,-0.911276 -0.752136,-1.365744 0,-1.781511 1.718968,-2.861549 3.274294,-2.057258 2.121273,1.096953 1.168866,4.175137 -1.29181,4.175137 -0.29719,0 -0.762926,-0.284713 -1.230348,-0.752135 z"
     id="path230" />
  <path
     style="fill:#e6e6e6;stroke-width:0.193732"
     d="m 11.384184,69.440215 c -0.29168,-0.158264 -0.662192,-0.542752 -0.823361,-0.854417 -0.8270662,-1.59937 0.27753,-3.298151 2.144553,-3.298151 0.971105,0 2.018248,1.06756 2.018248,2.0576 0,1.833495 -1.772264,2.945309 -3.33944,2.094968 z"
     id="path232" />
  <path
     style="fill:#e6e6e6;stroke-width:0.193732"
     d="m 17.994274,68.991345 c -0.86234,-0.86234 -0.989354,-1.693355 -0.396284,-2.592767 0.541453,-0.821132 1.021196,-1.098036 1.91404,-1.10477 1.100504,-0.0083 2.185942,1.006707 2.185942,2.044102 0,1.387463 -0.989491,2.40557 -2.337954,2.40557 -0.454469,0 -0.808676,-0.195067 -1.365744,-0.752135 z"
     id="path234" />
</svg>
